<?xml version="1.0" encoding="UTF-8"?>
<svg width="134.94mm" height="39.688mm" version="1.1" viewBox="0 0 134.94 39.688" xmlns="http://www.w3.org/2000/svg">
<g transform="translate(-7.3215 -71.336)">
<g transform="translate(-15.007 -49.368)" stroke-width=".26458">
<path d="m27.393 138.03c-0.01694-10.341 0.04928-13.057 0.32724-13.423 1.2845-0.99979 2.7709-1.7042 3.9977-2.5795 0.23142-0.37444 115.93-0.37444 116.16 0 1.0529 0.99885 3.0332 1.4606 3.9976 2.5795 0.27795 0.36603 0.34418 3.0826 0.32724 13.423l-0.0212 16.25c-59.016 2.0226-65.917 1.8792-124.58 0.75821l-0.21078-17.008z" fill="#fff"/>
<path d="m39.328 123.42c3.1651-0.0422 8.3443-0.0422 11.509 0s0.57547 0.0767-5.7547 0.0767c-6.3302 0-8.9198-0.0345-5.7547-0.0767zm89.429 0c3.1651-0.0422 8.3443-0.0422 11.509 0s0.57547 0.0767-5.7547 0.0767c-6.3302 0-8.9198-0.0345-5.7547-0.0767z" fill="#eed2b4"/>
<path d="m28.617 157.13c-1.0879-0.73258-1.2526-0.96344-1.2568-1.7624-0.0055-1.035 2.1502-27.28 2.3709-28.611 1.3345-1.5574 2.0764-1.7818 3.8537-3.2778l56.212 0.13224 56.287-0.10584c1.1532 1.2166 3.6796 2.0323 3.9858 3.6525 0.21444 1.293 2.1691 27.153 2.1691 28.212 0 0.67044-0.16239 1.0225-0.59532 1.2906-0.32742 0.20277-1.9409 1.2151-2.2612 1.4231-35.492 0.7767-77.935 0.44295-118.4 0.11986 0.34274 0.65092-0.92015-0.10355-2.3607-1.0735z" fill="#eed8c1"/>
<path d="m30.092 157.95c0-0.14105 24.649-0.20655 60.036-0.20588l59.98-0.11746c-0.79372 0.52771-1.706 1.1738-2.4997 1.7015l-115.62-6e-3c-0.66598-0.43507-1.4262-0.75756-1.8935-1.3722z" fill="#fdb040"/>
</g>
</g>
</svg>
