<?xml version="1.0" encoding="utf-8"?>
<!-- Generator: Adobe Illustrator 27.0.1, SVG Export Plug-In . SVG Version: 6.00 Build 0)  -->
<svg version="1.1"
	 id="svg5" xmlns:svg="http://www.w3.org/2000/svg" xmlns:sodipodi="http://sodipodi.sourceforge.net/DTD/sodipodi-0.dtd" xmlns:inkscape="http://www.inkscape.org/namespaces/inkscape"
	 xmlns="http://www.w3.org/2000/svg" xmlns:xlink="http://www.w3.org/1999/xlink" x="0px" y="0px" viewBox="0 0 13500 2935"
	 style="enable-background:new 0 0 13500 2935;" xml:space="preserve">
<style type="text/css">
	.st0{fill:#39240C;}
</style>
<path class="st0" d="M0-11068.1V2518l6.6,6.3c15.4,14.8,50.7,23.1,100.6,23.6c29.2,0.3,31.3,0,62.5-9.7
	c39.9-12.4,56.2-14.2,75.4-8.7c24.5,7.1,39.1,5.8,81.1-7.5c10.5-3.3,27.7-7.5,38.2-9.2c10.8-1.8,27.5-6.9,38.5-11.7
	c29.6-13.2,52.7-18.3,89.4-19.9c52.9-2.3,91.1,4,183.1,30.2c45,12.8,48.9,14.4,59.7,23.9c23.8,21,53.3,31.3,89.6,31.3
	c25.5,0,50-4.6,100.7-18.9c56-15.7,63.7-17,123.6-19.4c112.1-4.6,161.3,5.9,223.4,47.9c22.4,15.1,33.2,20.4,51.5,25.2
	c21.1,5.5,62.9,3.5,101.4-4.9c55.1-12.1,80.5-15.9,99.9-14.9c15.7,0.8,19.2,1.8,22.2,6.1c4.9,7,11.5,6.5,17.1-1.2
	c7.1-9.8,9.9-6.2,17.3,22.5c1.4,5.6,5.9,13.9,9.9,18.5c9,10.2,16.8,10.8,33.5,2.4c16.9-8.5,25.6-7.9,33,2.4
	c8.3,11.4,21.3,16.5,33.8,13.1c17.1-4.6,21.2-7.7,28.5-21.4c11.8-22.3,24.9-26.7,43-14.5c12.3,8.2,50.5,48.5,67.9,71.6
	c6.6,8.7,15.6,17.7,20.1,19.9c7.3,3.7,9,3.7,16.5,0.6c4.6-1.9,16.6-11.4,26.6-21c22.4-21.5,36.4-28.7,57.9-29.9
	c19.8-1.1,36.6,5.7,54.1,22.2c10,9.4,13.1,10.9,21.7,10.9c12.6,0,20.9,4.3,37.6,19.5c11.8,10.7,14.3,12,22,11.1
	c7.2-0.9,10.7,0.5,20.7,8c22.7,17.1,46.1,25.5,114.7,41.4c13.2,3.1,23.5,3.5,49.3,2.3c38.6-1.9,48.7,0.1,70,13.6
	c11.6,7.3,17.4,9.5,25.5,9.5c16.8,0,53.1,6.7,70.1,12.8c21,7.6,39.4,19,57.5,35.6c13,11.9,16,13.6,22,12.4c9.6-1.9,19,6.5,36.7,32.8
	c22.4,33.4,26.4,37.2,46,43c25.5,7.6,41.3,8,88.8,2.2c36-4.4,49.4-5,82.5-3.7c21.7,0.9,50.7,3.1,64.5,5c13.8,1.9,29.6,4,35.1,4.7
	l0-2.1c22.6,3,50.9-6.5,72.9-24.4c9.9-8.1,11.7-11,15.1-25c4.9-19.9,11.3-30.9,18.1-30.9c3.1,0,10.4,5.6,18.8,14.4
	c7.6,7.9,14.5,14.4,15.4,14.4c0.9,0,5.6-2.7,10.4-6c5.4-3.7,12.2-6,17.5-6c10.6,0,19.7-6.7,26-19.1c5.3-10.3,4.9-10.2,70.4-19.3
	c43.2-6,67.8-12.2,85.5-21.4c7.6-3.9,20-10.5,27.6-14.5c26.4-13.9,54.6-13.9,113.4,0c45,10.6,45.8,10.7,68.7,3.6
	c24.3-7.5,52.9-10.1,65.2-6.1c4.8,1.6,12.4,5.4,16.9,8.5l8.3,5.6l19.1-6.6c10.5-3.6,24.3-9.7,30.7-13.4c24.7-14.5,46.4-43,63.3-83.1
	c4-9.5,9.3-19.5,11.7-22.1c2.4-2.6,11-15,19.2-27.5c23.3-35.7,32.1-45.1,49.6-53c18.2-8.2,21.6-8.6,48.5-6c24.7,2.4,32.4,1,41.8-7.6
	c3.9-3.6,13-8.4,20.3-10.7c7.3-2.3,26.6-13,42.9-23.7c39.4-25.9,52.1-31.6,70.3-31.7c8.8,0,17.2,1.4,21.6,3.8
	c6.9,3.7,7.7,3.6,16.7-1.9c12.9-7.8,27.3-7.5,58.5,1.3c26.1,7.4,43.1,8.9,53.7,4.9c5.3-2,10.6-0.1,37.3,13.3
	c41.8,21,55.2,24.2,86.7,20.6c14.8-1.7,40.1-2.2,64.9-1.4c22.3,0.8,44.9,0.4,50.2-0.7c8.9-2,10.3-3.5,20.4-22.2
	c6-11,13.8-22.3,17.4-25c6.1-4.5,7.1-4.7,13-1.4c3.5,2,10.7,9.9,16,17.6c17.4,25.5,36.1,32.2,58.3,20.8c13-6.7,33-26.7,41.6-41.7
	c4.8-8.4,9.3-12.7,16.8-16c11.6-5.1,15.7-4.6,45.2,5.6c21.9,7.6,24.6,7.7,36.5,1.6l9.2-4.7l8,7c16,14.1,31.4,12.2,66.2-7.8
	c25.9-14.9,41.5-17.5,55.1-9.1l8.4,5.2l16-13.6c40.7-34.6,69.6-32.9,99.3,5.9l6.2,8.1l20-5.6c15.8-4.4,25.7-5.5,47.5-5.4
	c31.9,0.2,55.1,6,93.2,23.3c53.3,24.3,89,33.3,132.6,33.5c42.5,0.2,49.5-2.2,94.6-32.4c55.1-36.9,87.5-47.2,116.5-37.2
	c10.1,3.5,11.6,3.3,52.6-7.1c23.2-5.9,61-16.2,84-22.8c69.8-20.2,66.6-19.8,145.8-19.5c47.8,0.2,75.9,1.3,87.2,3.5l16.7,3.2
	l1.6,14.7c2.7,24.7,14.3,41.2,35.1,50.2c12,5.2,48.3,6.9,72.3,3.4c11-1.6,34.5-6.5,52.2-11l32.3-8l106.3-1.1
	c94.5-0.9,109.1-1.6,131.4-6c42-8.2,50.5-9.7,75-13.6c14.6-2.3,42.4-10.1,72.9-20.3c62.5-21,77.6-24.2,113.8-23.9
	c49.1,0.4,58.6-0.4,141-12.9c3.9-0.6,21.7-0.8,39.4-0.4c26.3,0.5,34.7,1.6,45.4,5.8c8.8,3.5,23,6,43,7.6
	c74.1,6.1,114.3,19.4,152.6,50.3l14.9,12l18.8-5.9c36.3-11.5,59.4-14.4,114.9-14.5c38.3-0.1,59.8,1.1,84.5,4.6
	c32.2,4.5,34.7,4.5,87.4,0.6c45.5-3.4,59.4-3.6,85.8-1.3c30.4,2.7,32.1,2.6,49.2-2.7c21.4-6.7,34.8-5.7,44.1,3.2
	c8.3,8,42.5,23.9,64.5,30c9.7,2.7,19.2,6.2,21.2,7.9c2.4,2,12.6,3,30.2,3.1c23.2,0.1,28.5,0.9,41.6,6.4
	c22.8,9.5,38.7,20.1,65.5,43.2c16.8,14.5,28.4,22.6,37.6,26c23.1,8.6,57.4,10.3,126.9,6c26.8-1.6,27.9-1.5,47.8,5.8
	c11.2,4.1,31.9,11.1,46,15.4c14.1,4.4,32.4,11.2,40.6,15c16.7,7.9,41.5,25.8,50.5,36.6c4.3,5.1,11.8,9,27,14
	c41.8,13.8,56.3,15.2,174,16.3c99.8,1,108.6,1.4,121.9,5.9c30.5,10.2,47.6,12.2,113.5,12.8c93.1,0.9,113.9,5.4,149.4,32
	c36.9,27.7,74.4,48.9,110.8,62.6c9,3.4,16.8,8.1,19,11.5c2.1,3.2,8,8.8,13.2,12.6c13.5,9.8,27.7,9.3,54.1-1.8
	c26.1-10.9,63.8-24.2,78.3-27.5c17.3-3.9,50.7-3.3,66.6,1.3c16.1,4.6,34.9,14.6,52.6,27.8l12.3,9.2l8-4.1
	c13.5-6.9,34.9-5.4,66.5,4.7c15.1,4.9,30.5,9.5,34.1,10.2c4,0.8,7.5,3.7,8.8,7c2.7,7,9,13.5,13.3,13.5c4.6,0,14.3-10.9,19.1-21.6
	c2.2-4.9,6.6-10.1,9.8-11.6c3.2-1.5,8-6.4,10.8-11.1l5-8.4l7.5,4.5c10.1,6.1,17.4,7.6,47,9.8c16.3,1.2,28.1,3.4,33.4,6.1
	c7.3,3.8,12.9,4.1,50.1,2.8c23-0.8,63.4-3.7,89.7-6.4c49.2-5.2,91.4-6.3,151.7-4.3c26.8,0.9,40.1,2.6,58.6,7.4
	c53.2,13.9,72.3,13.7,99-1.2c37.3-20.8,62.3-25.6,149.5-28.7c38.1-1.4,75.9-2.4,84.1-2.2c8.1,0.1,18.5-1.3,23-3.2
	c8.4-3.5,28.6-19.3,61.4-47.9c20.9-18.3,42.4-29.9,55.1-29.9c4.9,0,15.7,3.2,24.1,7.1c21.9,10.2,40.8,14.4,64.4,14.4
	c27.3,0,48.6-4.3,105.7-21.4c36.8-11,50.7-16.3,62.1-23.8c21.5-14,57.4-30.3,79.3-36.1c21.5-5.6,56.7-6.8,76.6-2.5l12.1,2.6
	l25.4-15.5c76.1-46.7,133.6-66,185.8-62.5c13.8,0.9,29.8,1.9,35.5,2.1c10.2,0.4,10.8,0.9,21.5,17.2c10.1,15.3,12.2,17.1,24.2,21
	c15,4.9,19.3,4.4,51.8-5.6c27.1-8.3,39.3-8.8,52-2c12.5,6.7,20.8,5.2,61.9-11.4c18.2-7.3,38.6-14.8,45.4-16.6
	c36.8-9.8,61.8,2.1,83.6,39.7c5.4,9.4,9.4,12.4,30.8,23.3c23.4,12,55.2,22.2,68.6,22.1c3.4,0,15-2.6,25.7-5.8
	c21.8-6.4,45.4-10.2,73.1-11.9c16.4-1,20.2-0.4,32.3,5.2c21.1,9.7,41.3,9,66.6-2.6c22.8-10.4,33.6-11.1,57-3.9
	c29,9,41,6.2,58.1-13.2l9.6-10.9l18.8,2.7c57.7,8.2,125.6-13.7,176-56.6c5-4.2,17.4-10.7,27.5-14.3c10.1-3.6,41.5-16.5,69.8-28.6
	c56-24.1,93.5-37.2,122.9-43.1c35.4-7.1,81.9-4,108.3,7.3c13.4,5.8,63,7.1,118.9,3.2c26.3-1.8,56.4-3.3,66.9-3.2
	c22.8,0.1,86.3,4.8,127.8,9.4c84.8,9.5,137,5.2,160.3-13.3c32.7-25.9,90-35.7,139.8-23.9c23.7,5.6,53.9,19.3,70.3,31.8
	c5.9,4.5,15.1,9.6,20.3,11.3c5.3,1.7,24.1,9.8,41.8,18c41.7,19.4,53.3,22.7,79.3,22.7c20.2,0,21.5,0.3,32.4,8.2
	c19.3,13.9,29.9,17,56.8,16.7c20.6-0.2,27.9-1.5,52.6-9.3c43.6-13.8,62.8-17.9,82.8-17.9c11.8,0,26.2-2.1,40.6-5.9
	c66.7-17.7,134.8-19.4,191.6-5c40,10.2,50.5,18.3,67.9,52.8c13.3,26.2,21.6,30.8,32.7,17.6c3.5-4.1,6.6-7.1,6.9-6.6
	c23.1,35.3,36.2,36.7,79,8.4c34.7-23,31.3-22.2,69.5-16c33.8,5.5,64.9-3.4,142.2-40.6c69.1-33.3,87-39,122.4-39.7l28-0.5l13.4-9.6
	c31.9-22.9,79.2-41.9,121.9-49.1c50.9-8.5,64.6-9.3,137.7-8c79.2,1.5,107.6,4.5,151.3,16c42.7,11.3,58.7,19,79.1,38.1
	c9.8,9.1,21,18.1,24.9,19.8l7.1,3.2v-13586.1"/>
</svg>
