<?xml version="1.0" encoding="UTF-8"?>
<svg width="126.42mm" height="36.719mm" version="1.1" viewBox="0 0 126.42 36.719" xmlns="http://www.w3.org/2000/svg">
<g transform="translate(-38.218 -159.27)">
<path d="m151.23 195.62c-0.38104-0.44743-1.6944-0.19105-2.499-0.33866-0.80467-0.1476-3.1859-0.21442-5.2917-0.14849-3.3388 0.10454-4.0446 0.0508-5.5168-0.42024-0.92846-0.29706-2.3572-0.54219-3.175-0.54473-0.81778-3e-3 -2.4989-0.17013-3.7358-0.37243-1.2369-0.20229-4.0289-0.45552-6.2043-0.56274-4.0391-0.19907-5.6883-0.60092-6.5051-1.585-0.30194-0.36382-0.38712-0.31141-0.69883 0.42994-0.35488 0.84401-0.35543 0.8442-1.8667 0.66658-1.7117-0.20117-2.5913-0.83754-2.8621-2.0707-0.22487-1.0238-0.52472-0.68167-0.97605 1.1136l-0.36479 1.4511-3.9958 0.0643c-2.8412 0.0457-4.6898 0.21895-6.3979 0.59941-1.3212 0.29428-2.875 0.53506-3.453 0.53506-0.98919 0-1.0671-0.0583-1.3256-0.99219-0.47061-1.6997-0.71467-1.8134-0.89956-0.41878l-0.16953 1.2787-5.7544-0.0668c-3.3881-0.0393-6.3528-0.20255-7.2096-0.39688-1.422-0.32252-10.938-0.3728-11.914-0.063-0.46379 0.1472-1.184-1.0275-0.90588-1.4776 0.0832-0.13461-0.08797-0.24475-0.38036-0.24475-0.2924 0-0.63371-0.18239-0.75846-0.40531-0.18163-0.32456-0.39216-0.17508-1.0566 0.7502l-0.82982 1.1555-3.5206 5.3e-4c-3.247 5.3e-4 -3.652 0.0567-5.2119 0.72423-1.5563 0.666-2.9314 0.76752-2.9429 0.21728-0.0022-0.10637-0.10432-0.35156-0.22688-0.54488-0.17484-0.27579-0.51301-0.17293-1.5703 0.47764-1.2615 0.77621-1.4539 0.81755-3.0143 0.64774-0.91672-0.0998-1.8082-0.29335-1.981-0.43019-0.17539-0.13887-0.86653-0.16597-1.5644-0.0613-1.0195 0.15288-1.3114 0.10373-1.582-0.2664-0.2987-0.40849-0.3936-0.4145-0.94918-0.0601-0.36027 0.22981-1.4434 0.43113-2.6013 0.48353l-1.984 0.0897-0.17917-1.1906c-0.36862-2.4495-0.25672-4.1166 0.31077-4.6302 0.29104-0.26339 0.52917-0.685 0.52917-0.9369 0-0.26335 0.39358-0.64478 0.92604-0.89745 1.0834-0.51409 1.2038-0.94378 0.26458-0.94378-0.41955 0-0.66146-0.14919-0.66146-0.40793 0-0.22437-0.23812-0.66354-0.52917-0.97594-0.67751-0.72722-0.66608-1.0982 0.06429-2.0861 0.55448-0.74998 0.56297-0.81975 0.12921-1.0625-0.66838-0.37405-1.8116-2.7482-1.6009-3.3246 0.09598-0.26254 0.45191-0.81391 0.79094-1.2253 0.33904-0.41134 0.61643-0.98472 0.61643-1.2742 0-0.81204 0.48141-1.5284 1.4059-2.0921 0.46366-0.28271 0.69453-0.51447 0.51305-0.51501-0.18148-5.4e-4 -1.056-0.32841-1.9434-0.72859l-1.6134-0.72761 0.16619-1.4441c0.18088-1.5717 0.7125-2.383 1.5787-2.4092 0.53542-0.0162 0.53403-0.0249-0.04101-0.25605-0.65667-0.26396-0.74256-0.53243-0.30901-0.96598 0.18856-0.18856 0.20067-0.45504 0.03547-0.78052-0.13796-0.27182-0.37806-0.8879-0.53355-1.3691-0.22766-0.70449-0.2088-0.90322 0.09683-1.0205 0.64658-0.24811 0.42856-1.4036-0.42608-2.2583-0.44309-0.44309-0.7579-0.85334-0.69958-0.91166 0.26319-0.26319 51.296-0.8726 86.96-1.0384 36.294-0.16877 39.258-0.14984 38.928 0.24854-0.19684 0.23717-0.5219 0.43122-0.72236 0.43122-0.47498 0-0.46106 0.24849 0.0452 0.80795 0.62646 0.69224 0.21864 1.7212-1.1155 2.8144-1.7378 1.424-1.868 1.8061-0.89445 2.6253 1.0302 0.86685 1.043 1.9252 0.0538 4.4581-0.56095 1.4364-0.86001 1.8753-1.3578 1.9928-0.43992 0.10385-0.70677 0.41453-0.85829 0.99925-0.12093 0.4667-0.57827 1.1135-1.0163 1.4374-0.75608 0.559-0.76895 0.59901-0.25391 0.78953 0.29838 0.11038 0.66686 0.53131 0.81883 0.9354 0.15196 0.40409 0.50425 0.97283 0.78285 1.2639s0.87775 0.97396 1.3314 1.5176l0.82491 0.98843-0.87078 0.86365c-0.47893 0.47501-1.2621 1.654-1.7404 2.62-0.47831 0.96596-1.0525 1.8265-1.276 1.9122-0.34682 0.13308-0.32838 0.23388 0.12586 0.68812 0.37472 0.37472 0.50268 0.78752 0.43245 1.3951-0.0549 0.47458-0.11306 0.99879-0.12932 1.1649-0.0163 0.16612-0.31534 0.37376-0.6646 0.46142-0.40026 0.10046-0.74156 0.46501-0.92322 0.98611-0.23076 0.66195-0.40805 0.80382-0.88956 0.71177-0.56613-0.10822-0.60255-0.0276-0.62163 1.3768-0.0153 1.1292 0.92276 1.5218 0.274 1.9751-1.0005 0.69904-0.81897 0.67178-3.3448 0.68188z" stroke-width=".26458"/>
</g>
</svg>
