<?xml version="1.0" encoding="UTF-8" standalone="no"?>
<!-- Created with Inkscape (http://www.inkscape.org/) -->

<svg
   width="1501"
   height="80"
   viewBox="0 0 397.13959 21.166666"
   version="1.1"
   id="svg5"
   inkscape:version="1.1.2 (b8e25be833, 2022-02-05)"
   sodipodi:docname="header-bg.svg"
   xmlns:inkscape="http://www.inkscape.org/namespaces/inkscape"
   xmlns:sodipodi="http://sodipodi.sourceforge.net/DTD/sodipodi-0.dtd"
   xmlns="http://www.w3.org/2000/svg"
   xmlns:svg="http://www.w3.org/2000/svg">
  <sodipodi:namedview
     id="namedview7"
     pagecolor="#ffffff"
     bordercolor="#666666"
     borderopacity="1.0"
     inkscape:pageshadow="2"
     inkscape:pageopacity="0.0"
     inkscape:pagecheckerboard="0"
     inkscape:document-units="mm"
     showgrid="false"
     fit-margin-top="0"
     fit-margin-left="0"
     fit-margin-right="0"
     fit-margin-bottom="0"
     inkscape:zoom="0.70710678"
     inkscape:cx="802.56619"
     inkscape:cy="352.13918"
     inkscape:window-width="1920"
     inkscape:window-height="1017"
     inkscape:window-x="-8"
     inkscape:window-y="-8"
     inkscape:window-maximized="1"
     inkscape:current-layer="layer1"
     height="17.72708mm"
     units="px" />
  <defs
     id="defs2" />
  <g
     inkscape:label="Layer 1"
     inkscape:groupmode="layer"
     id="layer1"
     transform="translate(57.666435,-35.822067)">
    <path
       style="fill:#452a1b;fill-opacity:0.808858;stroke-width:0.264583"
       d="m -3.1570202,51.881268 c -0.6519895,-0.05734 -1.3260004,-0.220916 -1.4977998,-0.363498 -0.2073542,-0.172086 -0.375169,-0.157621 -0.4991793,0.04303 -0.1177529,0.190529 -0.5910507,0.246065 -1.2803254,0.150231 -0.9847565,-0.136916 -2.0782091,-0.154057 -6.3851883,-0.100093 -0.727605,0.0091 -2.037294,-0.105716 -2.91042,-0.255183 -1.254555,-0.214762 -1.787807,-0.19236 -2.542558,0.106812 -0.84086,0.333303 -1.157231,0.327211 -2.645836,-0.05094 -2.079019,-0.528139 -8.526583,-0.57577 -11.951152,-0.08829 -1.641526,0.233668 -2.617204,0.252092 -3.326349,0.06281 -0.691297,-0.184518 -1.141319,-0.180901 -1.446537,0.01163 -0.312281,0.196981 -0.579991,0.195035 -0.906989,-0.0066 -0.255166,-0.157336 -0.896866,-0.234321 -1.426002,-0.171077 -0.529136,0.06324 -1.221357,-0.02378 -1.538268,-0.193385 -0.407494,-0.218083 -0.674981,-0.226396 -0.913563,-0.02839 -0.221288,0.183651 -1.603732,0.228962 -4.017988,0.131692 -2.024345,-0.08156 -4.156878,-0.120732 -4.738961,-0.08705 -2.915754,0.168731 -4.559537,0.06416 -5.49011,-0.34927 l -0.992189,-0.440802 V 42.69877 30.822067 h 198.569995 198.57 v 12.115796 7.793219 l -0.8599,0.148706 c -0.47294,0.08179 -1.39568,0.133179 -2.05052,0.114203 -0.65485,-0.01898 -2.23592,0.121761 -3.51348,0.312749 -1.6595,0.248082 -2.60946,0.270759 -3.32635,0.07941 -0.69131,-0.184518 -1.14134,-0.180901 -1.44656,0.01163 -0.31226,0.196981 -0.57997,0.195035 -0.90697,-0.0066 -0.25516,-0.157336 -0.89688,-0.234321 -1.426,-0.171077 -0.52914,0.06324 -1.22136,-0.02378 -1.53828,-0.193385 -0.40749,-0.218083 -0.67498,-0.226396 -0.91356,-0.02839 -0.22045,0.182961 -1.61279,0.230871 -4.01799,0.138256 -5.04106,-0.194113 -4.80923,-0.19489 -6.62967,0.02222 -1.21801,0.145265 -1.9422,0.08623 -2.88566,-0.235236 -0.90043,-0.306805 -1.35586,-0.349248 -1.59729,-0.148859 -0.18576,0.154172 -1.1494,0.259961 -2.14143,0.235088 -0.992,-0.02487 -2.84896,0.109897 -4.12652,0.299489 -1.65681,0.245867 -2.61063,0.267909 -3.32636,0.07687 -0.6913,-0.184517 -1.14133,-0.180901 -1.44655,0.01163 -0.31226,0.196981 -0.57997,0.195034 -0.90697,-0.0066 -0.25516,-0.157336 -0.89688,-0.234321 -1.426,-0.171077 -0.52914,0.06324 -1.22137,-0.02378 -1.53828,-0.193385 -0.40749,-0.218083 -0.67498,-0.226396 -0.91356,-0.02839 -0.22045,0.182962 -1.6128,0.230871 -4.018,0.138256 -2.02432,-0.07795 -4.0378,-0.134449 -4.47436,-0.125554 -3.3399,0.06805 -5.33195,0.184811 -5.55999,0.325883 -0.14756,0.09129 -1.03918,0.305767 -1.98136,0.476616 -1.84844,0.335182 -6.23833,0.128878 -6.50699,-0.305795 -0.092,-0.148934 -0.30274,-0.125757 -0.52369,0.05761 -0.22265,0.184788 -0.76571,0.243023 -1.36549,0.14643 -0.89691,-0.144442 -1.73445,-0.157873 -6.2875,-0.100827 -0.72762,0.0091 -2.03731,-0.105716 -2.91043,-0.255182 -1.25455,-0.214762 -1.78782,-0.192361 -2.54257,0.106811 -0.84084,0.333303 -1.15721,0.327212 -2.64583,-0.05094 -2.07903,-0.528139 -8.52658,-0.57577 -11.95114,-0.08829 -1.64153,0.233668 -2.61721,0.252092 -3.32635,0.06281 -0.6913,-0.184518 -1.14133,-0.180901 -1.44655,0.01163 -0.31226,0.196981 -0.57997,0.195034 -0.90697,-0.0066 -0.25516,-0.157337 -0.89688,-0.234322 -1.426,-0.171077 -0.52914,0.06324 -1.22137,-0.02378 -1.53828,-0.193385 -0.40749,-0.218084 -0.67499,-0.226396 -0.91357,-0.02839 -0.22129,0.183652 -1.60372,0.228962 -4.01799,0.131692 -2.02432,-0.08156 -4.15687,-0.122426 -4.73895,-0.09081 -1.14968,0.06244 -3.6837,0.06032 -5.15938,-0.0043 -0.50933,-0.02231 -1.61065,-0.03865 -2.4474,-0.0363 -0.83674,0.0024 -1.84878,-0.0021 -2.24896,-0.0098 -0.40019,-0.0077 -1.7729,0.138782 -3.05047,0.325573 -1.65132,0.241434 -2.61297,0.262185 -3.32634,0.07178 -0.69131,-0.184518 -1.14133,-0.180901 -1.44655,0.01163 -0.31228,0.196981 -0.57999,0.195034 -0.90698,-0.0066 -0.25517,-0.157337 -0.89687,-0.234322 -1.42601,-0.171077 -0.52914,0.06324 -1.22136,-0.02378 -1.53827,-0.193385 -0.40749,-0.218084 -0.67498,-0.226396 -0.91356,-0.02839 -0.22046,0.182961 -1.61281,0.230871 -4.01799,0.138256 -2.02434,-0.07795 -4.03782,-0.134448 -4.47438,-0.125553 -3.33989,0.06805 -5.33193,0.184811 -5.55998,0.325883 -0.14757,0.09129 -1.03919,0.305766 -1.98136,0.476616 -1.84843,0.335181 -6.23833,0.128877 -6.50698,-0.305795 -0.092,-0.148935 -0.30274,-0.125757 -0.52368,0.05761 -0.22266,0.184788 -0.76572,0.243023 -1.36551,0.14643 -0.89691,-0.144443 -1.73446,-0.157874 -6.28751,-0.100827 -0.7276,0.0091 -2.03729,-0.105716 -2.91042,-0.255183 -1.25455,-0.214762 -1.7878,-0.19236 -2.54255,0.106812 -0.84087,0.333303 -1.15724,0.327211 -2.64585,-0.05094 -2.07901,-0.528139 -8.52658,-0.57577 -11.95114,-0.08829 -1.64153,0.233668 -2.61721,0.252092 -3.32635,0.06281 -0.6913,-0.184518 -1.14132,-0.180901 -1.44654,0.01163 -0.31229,0.196981 -0.58,0.195035 -0.90699,-0.0066 -0.25517,-0.157336 -0.89687,-0.234321 -1.426,-0.171077 -0.52914,0.06324 -1.22136,-0.02378 -1.53827,-0.193385 -0.40749,-0.218083 -0.67498,-0.226396 -0.91356,-0.02839 -0.22046,0.182961 -1.61281,0.230871 -4.01799,0.138256 -5.04021,-0.19408 -4.81007,-0.194824 -6.62057,0.02139 -1.21448,0.145036 -1.94576,0.08392 -2.93752,-0.245488 -1.01695,-0.337775 -1.49015,-0.3741 -2.05848,-0.158021 -0.40588,0.154318 -1.40572,0.26394 -2.22185,0.243605 -0.81614,-0.02034 -2.52917,0.11893 -3.80675,0.309476 -1.65864,0.24738 -2.60981,0.269856 -3.32635,0.0786 -0.6913,-0.184517 -1.14132,-0.180901 -1.44654,0.01163 -0.31228,0.196981 -0.57999,0.195034 -0.90699,-0.0066 -0.25516,-0.157337 -0.89686,-0.234321 -1.426,-0.171077 -0.52913,0.06324 -1.22135,-0.02378 -1.53826,-0.193385 -0.4075,-0.218083 -0.67499,-0.226396 -0.91357,-0.02839 -0.22045,0.182961 -1.6128,0.230871 -4.01799,0.138256 -2.02434,-0.07795 -4.03781,-0.134448 -4.47437,-0.125553 -3.339898,0.06805 -5.331937,0.184811 -5.559984,0.325883 -0.147572,0.09129 -1.039189,0.305766 -1.981369,0.476616 -1.848415,0.335181 -6.238326,0.128877 -6.506968,-0.305795 -0.09205,-0.148935 -0.30275,-0.125757 -0.523688,0.05761 -0.222658,0.184788 -0.765721,0.243023 -1.365511,0.14643 -0.896909,-0.144443 -1.734457,-0.157874 -6.287504,-0.100827 -0.727605,0.0091 -2.037294,-0.105716 -2.91042,-0.255183 -1.254555,-0.214762 -1.787807,-0.19236 -2.542558,0.106812 -0.84086,0.333303 -1.15723,0.327211 -2.645836,-0.05094 -2.079019,-0.528139 -8.526583,-0.57577 -11.951152,-0.08829 -1.641527,0.233668 -2.617206,0.252092 -3.326348,0.06281 -0.691298,-0.184518 -1.141321,-0.180901 -1.446539,0.01163 -0.31228,0.196981 -0.579992,0.195035 -0.906988,-0.0066 -0.255164,-0.157336 -0.896867,-0.234321 -1.426003,-0.171077 -0.529134,0.06324 -1.221357,-0.02378 -1.538267,-0.193385 -0.407494,-0.218083 -0.674982,-0.226396 -0.913565,-0.02839 -0.221284,0.183651 -1.603731,0.228962 -4.017985,0.131692 -2.024345,-0.08156 -4.156878,-0.122426 -4.738962,-0.09081 -1.149658,0.06244 -3.683703,0.06032 -5.15938,-0.0043 -0.509324,-0.02231 -1.610654,-0.03865 -2.447399,-0.0363 -0.836746,0.0024 -1.848778,-0.0021 -2.248961,-0.0098 -0.400183,-0.0077 -1.772893,0.138782 -3.050469,0.325573 -1.651311,0.241434 -2.612977,0.262185 -3.326348,0.07178 -0.691298,-0.184518 -1.141321,-0.180901 -1.446539,0.01163 -0.312281,0.196981 -0.579991,0.195034 -0.906987,-0.0066 -0.255165,-0.157337 -0.896867,-0.234322 -1.426003,-0.171077 -0.529135,0.06324 -1.221358,-0.02378 -1.538268,-0.193385 -0.407493,-0.218084 -0.674982,-0.226396 -0.913565,-0.02839 -0.220453,0.182961 -1.612804,0.230871 -4.017985,0.138256 -2.024345,-0.07795 -4.0378162,-0.134448 -4.4743786,-0.125553 -3.3271603,0.06779 -5.3313811,0.184436 -5.556256,0.323366 -0.9100486,0.56224 -4.04729585,0.807119 -7.0062746,0.546878 z"
       id="path75"
       sodipodi:nodetypes="cssscssssssssssscscccccccsssssssssssssssssssssssssssssssssssssssssssssssssssssssssssssssssssssssssssssssssssssssssssssssssssssscssssssssssscc" />
  </g>
</svg>
