<?xml version="1.0" encoding="UTF-8"?>
<svg width="134.94mm" height="39.688mm" version="1.1" viewBox="0 0 134.94 39.688" xmlns="http://www.w3.org/2000/svg">
<g transform="translate(-7.3215 -71.336)">
<g transform="translate(-15.007 -49.368)" stroke-width=".26458">
<path d="m27.393 138.03c-0.01694-10.341 0.04928-13.057 0.32724-13.423 1.2845-0.99979 2.7709-1.7042 3.9977-2.5795 0.23142-0.37444 115.93-0.37444 116.16 0 1.0529 0.99885 3.0332 1.4606 3.9976 2.5795 0.27795 0.36603 0.34418 3.0826 0.32724 13.423l-0.0212 16.25c-59.016 2.0226-65.917 1.8792-124.58 0.75821l-0.21078-17.008z" fill="#eed8c1"/>
<path d="m39.328 123.42c3.1651-0.0422 8.3443-0.0422 11.509 0s0.57547 0.0767-5.7547 0.0767c-6.3302 0-8.9198-0.0345-5.7547-0.0767zm89.429 0c3.1651-0.0422 8.3443-0.0422 11.509 0s0.57547 0.0767-5.7547 0.0767c-6.3302 0-8.9198-0.0345-5.7547-0.0767z" fill="#eed2b4"/>
<path d="m28.617 157.13c-1.0879-0.73258-1.2526-0.96344-1.2568-1.7624-0.0055-1.035 2.1502-27.28 2.3709-28.611 1.3345-1.5574 2.0764-1.7818 3.8537-3.2778l56.212 0.13224 56.287-0.10584c1.1532 1.2166 3.6796 2.0323 3.9858 3.6525 0.21444 1.293 2.1691 27.153 2.1691 28.212 0 0.67044-0.16239 1.0225-0.59532 1.2906-0.32742 0.20277-1.215 0.75715-1.5352 0.96521-35.492 0.7767-79.487 0.32009-119.96-3e-3 0.34274 0.65092-0.09366 0.47723-1.5342-0.49275z" fill="#edba74"/>
<path d="m30.125 157.98c-0.07304-0.25467-0.43297-2.5272-0.52958-4.2007-0.14362-2.4879-0.09011-3.3563 0.29346-4.7625 0.30389-1.1141 0.44582-2.439 0.403-3.7619-0.04545-1.4041 0.05614-2.2721 0.32516-2.7781 0.60624-1.1404 1.2095-5.9948 1.0487-8.4397-0.09481-1.4422-0.04378-2.2076 0.15536-2.3307 0.16309-0.10079 0.29653-0.50693 0.29653-0.90253 0-1.1413 0.68416-1.8953 1.7197-1.8953 0.89652 0 2.4337-0.72488 3.4523-1.628 0.45326-0.40185 0.96634-0.59768 3.0585-0.55142 1.9274 0.0426 2.6671 0.0798 3.2789-0.26254 1.6595-0.92869 7.9158-1.462 11.789-1.005 2.7278 0.32183 2.8556 0.31268 5.424-0.38841l2.6303-0.718 2.5135 0.44743c1.3824 0.24608 2.8112 0.5492 3.175 0.67359 1.5769 0.53916 3.6983 0.83609 4.91 0.68723 0.71926-0.0884 2.6773-0.23487 4.3513-0.32556 2.6496-0.14355 3.5494-0.3889 6.7389 0.22893l3.6637 0.70973 2.1065-0.67945c2.5209-0.81311 4.3538-0.62257 6.1235 0.075 1.1527 0.45436 2.1959 0.50622 8.8921 0.65246 13.672 0.29859 13.567 0.31258 15.612-0.51897 1.5781-0.6416 2.0547-0.6113 3.5028-0.44155 0.90524 0.10611 4.7118 0.15157 8.3432 0.19755 3.6314 0.046 6.9109 0.23819 7.4035 0.33061 0.50114 0.094 1.3822 0.61653 2.0003 1.1862 0.71844 0.66223 1.5681 0.98836 2.2538 1.1091 2.4164 0.42545 2.8174 1.3135 3.2085 5.3804 0.44515 4.6286 1.0092 7.7196 1.7443 9.5596 0.6143 1.5375 0.64623 1.886 0.61231 6.6838-0.0197 2.784 0.0246 5.1427-0.10425 5.2224-0.12888 0.0796-0.23432 0.42571-0.23432 0.76902 0 0.34332-0.0914 1.0989-0.17965 1.3291-0.14579 0.37993-5.5762 1.0008-59.937 1.0008-56.803 0-59.92-0.21334-60.046-0.65256z" fill="#fdb040"/>
<path d="m30.092 157.95c0-0.14105 24.649-0.20655 60.036-0.20588l59.98-0.11746c-0.79372 0.52771-1.706 1.1738-2.4997 1.7015l-115.62-6e-3c-0.66598-0.43507-1.4262-0.75756-1.8935-1.3722z" fill="#c05326"/>
</g>
</g>
</svg>
