<?xml version="1.0" encoding="utf-8"?>
<svg width="40" height="40" viewBox="0 0 40 40" fill="none" xmlns="http://www.w3.org/2000/svg">
<circle cx="20" cy="20" r="20" fill="#1DA1F2"/>
<path d="M30.6668 12.7183C29.8804 13.0675 29.0374 13.3019 28.1513 13.4083C29.0557 12.8663 29.7507 12.0084 30.0766 10.9875C29.232 11.488 28.2926 11.8521 27.2967 12.0483C26.4986 11.197 25.3613 10.6666 24.1027 10.6666C21.6852 10.6666 19.725 12.6252 19.725 15.0427C19.725 15.3852 19.7649 15.7194 19.8397 16.0403C16.2019 15.8574 12.978 14.1149 10.8182 11.4664C10.4408 12.1148 10.2263 12.8663 10.2263 13.6677C10.2263 15.1857 10.9978 16.5258 12.1733 17.3122C11.455 17.2889 10.78 17.0911 10.1898 16.7635C10.1898 16.7818 10.1898 16.8001 10.1898 16.8184C10.1898 18.9399 11.6994 20.7073 13.6996 21.1113C13.3338 21.2111 12.9464 21.2643 12.5474 21.2643C12.2647 21.2643 11.9904 21.2377 11.7227 21.1845C12.2814 22.9219 13.8974 24.1905 15.8111 24.2255C14.3148 25.3993 12.4277 26.0976 10.376 26.0976C10.0218 26.0976 9.67434 26.0776 9.3335 26.0361C11.2688 27.2797 13.5699 28.003 16.0422 28.003C24.0928 28.003 28.4954 21.3341 28.4954 15.5515C28.4954 15.3619 28.4904 15.1707 28.4838 14.9845C29.3384 14.3677 30.0799 13.5962 30.6668 12.7183Z" fill="white"/>
</svg>
