<?xml version="1.0" encoding="utf-8"?>
<!-- Generator: Adobe Illustrator 27.0.1, SVG Export Plug-In . SVG Version: 6.00 Build 0)  -->
<svg version="1.1"
	 id="svg5" xmlns:svg="http://www.w3.org/2000/svg" xmlns:sodipodi="http://sodipodi.sourceforge.net/DTD/sodipodi-0.dtd" xmlns:inkscape="http://www.inkscape.org/namespaces/inkscape"
	 xmlns="http://www.w3.org/2000/svg" xmlns:xlink="http://www.w3.org/1999/xlink" x="0px" y="0px" viewBox="0 0 8491.2 1722.8"
	 style="enable-background:new 0 0 8491.2 1722.8;" xml:space="preserve">
<style type="text/css">
	.st0{fill:#39240C;}
</style>
<path class="st0" d="M-674.7-7372.2v8824.6l4.2,4.1c9.9,9.6,32.4,15,64.3,15.3c18.7,0.2,20,0,39.9-6.3c25.5-8,35.9-9.3,48.2-5.6
	c15.7,4.6,25,3.8,51.8-4.9c6.7-2.2,17.7-4.9,24.4-6c6.9-1.1,17.6-4.5,24.6-7.6c18.9-8.6,33.7-11.9,57.2-12.9
	c33.8-1.5,58.2,2.6,117.1,19.6c28.8,8.3,31.3,9.3,38.2,15.6c15.2,13.6,34.1,20.3,57.3,20.3c16.3,0,32-3,64.3-12.3
	c35.8-10.2,40.7-11,79-12.6c71.6-3,103.1,3.9,142.8,31.1c14.3,9.8,21.2,13.3,32.9,16.4c13.5,3.6,40.2,2.3,64.8-3.2
	c35.2-7.9,51.5-10.3,63.8-9.7c10.1,0.5,12.3,1.1,14.2,4c3.1,4.5,7.4,4.2,10.9-0.8c4.5-6.4,6.3-4,11,14.6c0.9,3.6,3.8,9.1,6.4,12
	c5.7,6.7,10.7,7,21.4,1.5c10.8-5.5,16.3-5.1,21.1,1.5c5.3,7.4,13.6,10.7,21.6,8.5c10.9-3,13.5-5,18.2-13.9
	c7.6-14.5,15.9-17.3,27.5-9.4c7.8,5.3,32.3,31.5,43.4,46.5c4.2,5.7,10,11.5,12.8,12.9c4.7,2.4,5.7,2.4,10.5,0.4
	c2.9-1.2,10.6-7.4,17-13.6c14.3-13.9,23.3-18.6,37-19.4c12.6-0.7,23.4,3.7,34.6,14.4c6.4,6.1,8.4,7.1,13.9,7.1
	c8.1,0,13.3,2.8,24.1,12.7c7.6,7,9.1,7.8,14.1,7.2c4.6-0.6,6.9,0.3,13.2,5.2c14.5,11.1,29.4,16.6,73.3,26.9c8.5,2,15,2.3,31.5,1.5
	c24.7-1.2,31.1,0.1,44.8,8.8c7.4,4.8,11.1,6.2,16.3,6.2c10.7,0,33.9,4.3,44.8,8.3c13.4,5,25.2,12.3,36.8,23.1
	c8.3,7.7,10.2,8.8,14.1,8c6.2-1.3,12.2,4.2,23.5,21.3c14.3,21.7,16.9,24.2,29.4,28c16.3,5,26.4,5.2,56.8,1.4
	c23-2.9,31.6-3.3,52.7-2.4c13.9,0.6,32.4,2,41.2,3.3c8.8,1.2,18.9,2.6,22.4,3.1l0-1.3c14.5,1.9,32.6-4.2,46.6-15.8
	c6.3-5.3,7.5-7.1,9.7-16.3c3.1-12.9,7.2-20.1,11.6-20.1c2,0,6.7,3.6,12,9.3c4.8,5.1,9.2,9.3,9.8,9.3c0.6,0,3.6-1.7,6.7-3.9
	c3.4-2.4,7.8-3.9,11.2-3.9c6.8,0,12.6-4.4,16.6-12.4c3.4-6.7,3.1-6.6,45-12.6c27.6-3.9,43.4-7.9,54.7-13.9
	c4.8-2.6,12.8-6.8,17.7-9.4c16.9-9,34.9-9,72.5,0c28.8,6.9,29.3,6.9,43.9,2.4c15.5-4.8,33.8-6.6,41.7-3.9c3,1,7.9,3.5,10.8,5.5
	l5.3,3.7l12.2-4.3c6.7-2.4,15.5-6.3,19.6-8.7c15.8-9.4,29.7-27.9,40.4-54c2.6-6.2,5.9-12.7,7.5-14.4c1.5-1.7,7-9.8,12.3-17.9
	c14.9-23.2,20.5-29.3,31.7-34.4c11.6-5.3,13.8-5.6,31-3.9c15.8,1.6,20.7,0.7,26.7-4.9c2.5-2.3,8.3-5.4,13-6.9
	c4.6-1.5,17-8.4,27.4-15.4c25.2-16.8,33.3-20.5,44.9-20.6c5.6,0,11,0.9,13.8,2.5c4.4,2.4,4.9,2.4,10.7-1.2
	c8.2-5.1,17.5-4.9,37.4,0.9c16.7,4.8,27.5,5.8,34.3,3.2c3.4-1.3,6.8-0.1,23.8,8.6c26.7,13.7,35.3,15.7,55.4,13.4
	c9.4-1.1,25.6-1.4,41.5-0.9c14.3,0.5,28.7,0.3,32.1-0.5c5.7-1.3,6.6-2.3,13-14.4c3.8-7.2,8.8-14.5,11.1-16.2c3.9-2.9,4.6-3,8.3-0.9
	c2.2,1.3,6.8,6.4,10.2,11.5c11.1,16.6,23.1,20.9,37.3,13.5c8.3-4.4,21.1-17.3,26.6-27.1c3.1-5.5,5.9-8.2,10.7-10.4
	c7.4-3.3,10-3,28.9,3.6c14,4.9,15.7,5,23.3,1.1l5.9-3.1l5.1,4.5c10.2,9.1,20.1,8,42.3-5.1c16.6-9.7,26.5-11.4,35.2-5.9l5.4,3.4
	l10.2-8.8c26-22.5,44.5-21.3,63.5,3.8l4,5.3l12.8-3.6c10.1-2.9,16.4-3.6,30.3-3.5c20.4,0.1,35.2,3.9,59.6,15.2
	c34.1,15.8,56.9,21.6,84.8,21.8c27.2,0.1,31.6-1.4,60.5-21.1c35.2-24,55.9-30.7,74.5-24.2c6.5,2.3,7.4,2.1,33.6-4.6
	c14.8-3.8,39-10.5,53.7-14.8c44.6-13.1,42.6-12.9,93.2-12.6c30.6,0.1,48.5,0.9,55.7,2.3l10.7,2.1l1,9.6c1.7,16,9.1,26.8,22.4,32.6
	c7.6,3.4,30.9,4.5,46.2,2.2c7-1,22-4.2,33.4-7.1l20.6-5.2l68-0.7c60.4-0.6,69.8-1,84-3.9c26.8-5.3,32.3-6.3,48-8.8
	c9.3-1.5,27.1-6.5,46.6-13.2c39.9-13.7,49.6-15.7,72.7-15.5c31.4,0.3,37.4-0.3,90.1-8.4c2.5-0.4,13.9-0.5,25.2-0.3
	c16.8,0.3,22.2,1,29,3.8c5.6,2.2,14.7,3.9,27.5,5c47.4,4,73.1,12.6,97.6,32.6l9.5,7.8l12-3.9c23.2-7.5,38-9.3,73.4-9.4
	c24.5,0,38.2,0.7,54,3c20.6,2.9,22.2,3,55.9,0.4c29.1-2.2,38-2.3,54.8-0.8c19.4,1.8,20.5,1.7,31.4-1.8c13.7-4.4,22.2-3.7,28.2,2.1
	c5.3,5.2,27.2,15.5,41.2,19.5c6.2,1.7,12.3,4,13.5,5.1c1.5,1.3,8,2,19.3,2c14.8,0.1,18.2,0.6,26.6,4.2c14.5,6.2,24.8,13,41.9,28
	c10.7,9.4,18.2,14.7,24,16.9c14.7,5.6,36.7,6.7,81.1,3.9c17.2-1.1,17.9-1,30.5,3.8c7.1,2.7,20.4,7.2,29.4,10s20.7,7.2,26,9.8
	c10.7,5.1,26.5,16.8,32.3,23.8c2.7,3.3,7.5,5.8,17.3,9.1c26.7,9,36,9.9,111.2,10.6c63.8,0.6,69.4,0.9,77.9,3.8
	c19.5,6.7,30.5,7.9,72.5,8.3c59.5,0.6,72.8,3.5,95.5,20.8c23.6,18,47.5,31.8,70.8,40.7c5.7,2.2,10.7,5.3,12.2,7.5
	c1.3,2,5.1,5.7,8.4,8.2c8.6,6.3,17.7,6,34.6-1.2c16.7-7.1,40.8-15.7,50-17.8c11.1-2.5,32.4-2.1,42.6,0.8c10.3,3,22.3,9.5,33.6,18
	l7.9,6l5.1-2.7c8.6-4.5,22.3-3.5,42.5,3.1c9.7,3.2,19.5,6.1,21.8,6.6c2.5,0.5,4.8,2.4,5.6,4.5c1.7,4.6,5.8,8.7,8.5,8.7
	c2.9,0,9.1-7.1,12.2-14c1.4-3.2,4.2-6.6,6.3-7.5c2-0.9,5.1-4.2,6.9-7.2l3.2-5.5l4.8,2.9c6.5,3.9,11.1,4.9,30.1,6.4
	c10.4,0.8,18,2.2,21.4,4c4.6,2.4,8.2,2.6,32,1.8c14.7-0.5,40.5-2.4,57.3-4.2c31.5-3.3,58.4-4.1,97-2.8c17.1,0.6,25.6,1.7,37.4,4.8
	c34,9,46.2,8.9,63.3-0.8c23.8-13.5,39.8-16.6,95.5-18.7c24.4-0.9,48.5-1.5,53.7-1.5c5.2,0.1,11.8-0.9,14.7-2.1
	c5.4-2.3,18.3-12.5,39.2-31.1c13.4-11.9,27.1-19.4,35.2-19.4c3.1,0,10.1,2.1,15.4,4.6c14,6.6,26.1,9.4,41.2,9.4
	c17.5,0,31.1-2.8,67.5-13.9c23.5-7.2,32.4-10.6,39.7-15.5c13.8-9.1,36.7-19.7,50.7-23.4c13.7-3.7,36.2-4.4,49-1.6l7.7,1.7l16.2-10.1
	c48.6-30.3,85.4-42.9,118.8-40.6c8.8,0.6,19,1.2,22.7,1.4c6.5,0.3,6.9,0.6,13.7,11.1c6.5,10,7.8,11.1,15.5,13.7
	c9.6,3.2,12.3,2.9,33.1-3.6c17.3-5.4,25.1-5.7,33.2-1.3c8,4.4,13.3,3.4,39.6-7.4c11.6-4.8,24.7-9.6,29-10.8
	c23.5-6.4,39.5,1.4,53.4,25.8c3.5,6.1,6,8.1,19.7,15.2c14.9,7.8,35.3,14.4,43.8,14.3c2.2,0,9.6-1.7,16.4-3.8
	c13.9-4.2,29-6.7,46.7-7.7c10.5-0.6,12.9-0.2,20.6,3.4c13.5,6.3,26.4,5.8,42.6-1.7c14.6-6.7,21.5-7.2,36.4-2.5
	c18.5,5.8,26.2,4,37.1-8.6l6.1-7.1l12,1.7c36.9,5.3,80.3-8.9,112.5-36.8c3.2-2.8,11.1-6.9,17.6-9.3c6.5-2.3,26.5-10.7,44.6-18.6
	c35.8-15.6,59.8-24.2,78.5-28c22.6-4.6,52.4-2.6,69.2,4.8c8.6,3.7,40.3,4.6,76,2.1c16.8-1.2,36-2.1,42.8-2.1
	c14.6,0.1,55.1,3.1,81.7,6.1c54.2,6.2,87.6,3.4,102.4-8.6c20.9-16.9,57.5-23.2,89.4-15.5c15.1,3.7,34.5,12.5,44.9,20.7
	c3.8,2.9,9.6,6.2,13,7.3c3.4,1.1,15.4,6.4,26.7,11.7c26.6,12.6,34.1,14.8,50.7,14.8c12.9,0,13.8,0.2,20.7,5.3
	c12.4,9,19.1,11,36.3,10.9c13.2-0.1,17.8-1,33.6-6.1c27.9-8.9,40.1-11.6,52.9-11.7c7.5,0,16.8-1.4,26-3.9
	c42.6-11.5,86.1-12.6,122.5-3.2c25.6,6.6,32.3,11.9,43.4,34.3c8.5,17,13.8,20,20.9,11.5c2.2-2.7,4.2-4.6,4.4-4.3
	c14.8,23,23.2,23.9,50.5,5.4c22.2-14.9,20-14.4,44.4-10.4c21.6,3.6,41.5-2.2,90.9-26.4c44.2-21.6,55.6-25.4,78.3-25.8l17.9-0.4
	l8.5-6.2c20.4-14.8,50.6-27.2,77.9-31.9c32.5-5.5,41.3-6.1,88-5.2c50.6,0.9,68.8,2.9,96.7,10.4c27.3,7.3,37.5,12.4,50.6,24.7
	c6.2,5.9,13.4,11.7,15.9,12.9l4.5,2.1v-8824.6"/>
</svg>
