<?xml version="1.0" encoding="UTF-8"?>
<svg width="2008" height="18892" version="1.1" viewBox="0 0 531.28 4998.6" xmlns="http://www.w3.org/2000/svg">
<g transform="translate(652.35 632.33)">
<path transform="matrix(.26458 0 0 .26458 -652.35 -633.77)" d="m402.1 5.502c-0.77257 0.10167-2.9856 0.39992-4.918 0.66211-1.9324 0.2623-5.9986 0.57841-9.0352 0.70117-4.6212 0.18671-6.5036 0.10221-11.545-0.51562-6.6572-0.81592-8.8654-0.76269-12.434 0.30469-2.74 0.81967-3.298 1.3426-6.4414 6.0176-2.4804 3.6889-3.7954 4.8616-5.1445 4.5918-0.84476-0.16894-1.2609 0.06414-3.082 1.7266-2.543 2.3213-5.116 3.9119-8.0547 4.9785-2.3782 0.86324-7.4593 1.7928-9.8125 1.7949-1.1347 1e-3 -1.948 0.30365-3.5703 1.3281-2.9833 1.8841-4.4038 2.1597-9.8066 1.9004-3.6097-0.1731-5.0483-0.10678-6.9023 0.32031-9.6078 2.2141-12.881 3.3935-16.057 5.7852-1.3923 1.0486-1.8857 1.2386-2.8945 1.1191-1.0808-0.12813-1.4218 0.04493-3.0801 1.5469-2.3502 2.1284-3.5038 2.7246-5.2715 2.7246-1.2056 0-1.6352 0.21633-3.0391 1.5293-2.4534 2.2949-4.8109 3.258-7.5781 3.0977-3.0093-0.17424-4.969-1.1852-8.1094-4.1855-1.4054-1.3427-3.0828-2.6607-3.7266-2.9297-1.0504-0.43892-1.2864-0.43042-2.3066 0.08008-0.62532 0.31257-1.8912 1.5662-2.8125 2.7871-2.435 3.2267-7.7963 8.8717-9.5117 10.014-2.5451 1.6942-4.3665 1.0792-6.0254-2.0332-1.0228-1.9189-1.5922-2.348-3.9844-2.9922-1.7546-0.47248-3.5751 0.23141-4.7383 1.8301-1.0428 1.4333-2.2564 1.5208-4.623 0.33203-2.3477-1.1792-3.4394-1.1027-4.6973 0.33008-0.56341 0.64173-1.1904 1.8072-1.3926 2.5918-1.0348 4.0165-1.4196 4.5182-2.416 3.1504-0.7835-1.0755-1.7153-1.1376-2.3984-0.16211-0.42871 0.6121-0.90838 0.74425-3.1133 0.85938-2.71 0.14136-6.2641-0.38735-13.984-2.0781-5.3905-1.1805-11.249-1.4645-14.201-0.68945-2.5636 0.67302-4.0766 1.4126-7.2148 3.5273-8.7012 5.8635-15.591 7.3384-31.285 6.6934-8.3909-0.34469-9.4688-0.51512-17.311-2.7148-7.0906-1.989-10.53-2.6317-14.096-2.6367-5.0848-0.0076-9.217 1.4318-12.547 4.3691-1.5175 1.3386-2.0665 1.559-8.3652 3.3477-12.892 3.6611-18.232 4.5395-25.643 4.2246-5.1479-0.21884-8.3718-0.9331-12.521-2.7754-1.5287-0.67869-3.8734-1.3907-5.3848-1.6367-1.4723-0.23962-3.8812-0.81872-5.3535-1.2852-5.8764-1.8618-7.9249-2.0506-11.357-1.0527-2.6872 0.78119-4.9679 0.51956-10.559-1.2109-4.3629-1.3504-4.6617-1.397-8.75-1.3516-6.9902 0.07786-11.929 1.2355-14.088 3.3027l-0.91992 0.88086v18834h2008v-18834l-0.9961 0.44141c-0.5481 0.24264-2.1169 1.4886-3.4863 2.7676-2.8517 2.6631-5.1014 3.7433-11.076 5.3223-6.1197 1.6173-10.097 2.0384-21.191 2.2422-10.223 0.18784-12.149 0.07556-19.275-1.1172-5.9776-1.0003-12.604-3.6622-17.066-6.8574l-1.873-1.3418-3.9258-0.07617c-4.9599-0.09751-7.4609-0.90767-17.143-5.5566-10.829-5.1998-15.182-6.4411-19.91-5.6738-5.3484 0.86786-4.8769 0.97641-9.7363-2.2402-5.9916-3.9662-7.8332-3.7714-11.066 1.1699-0.045 0.06916-0.4789-0.34483-0.9629-0.91992-1.543-1.8338-2.7153-1.2018-4.5742 2.4668-2.4443 4.8238-3.9101 5.9613-9.5137 7.3828-7.9608 2.0194-17.496 1.7714-26.832-0.69922-2.0151-0.53329-4.0346-0.82838-5.6875-0.83008-2.8087-0.0025-5.4903-0.58184-11.598-2.5078-3.4594-1.0909-4.4785-1.2725-7.3613-1.3027-3.7639-0.03931-5.2436 0.39604-7.9492 2.3379-1.5216 1.0921-1.7163 1.1406-4.5391 1.1406-3.6316 0-5.2622 0.46707-11.1 3.1758-2.4856 1.1534-5.1232 2.2887-5.8594 2.5234-0.7361 0.23471-2.0155 0.94427-2.8437 1.5762-2.2924 1.7491-6.5226 3.6623-9.8398 4.4492-6.9798 1.6558-15.002 0.28748-19.582-3.3398-3.2601-2.5821-10.571-3.1884-22.443-1.8594-5.8223 0.65182-14.708 1.3054-17.9 1.3164-1.4723 0.0038-5.6885-0.19789-9.3692-0.45312-7.8195-0.54217-14.77-0.3551-16.648 0.44922-3.6969 1.5835-10.209 2.0243-15.17 1.0273-4.1117-0.82628-9.3652-2.6672-17.203-6.0312-3.9567-1.6982-8.3541-3.4992-9.7714-4.002-1.4174-0.50272-3.1486-1.4-3.8477-1.9941-7.0594-6-16.574-9.0561-24.648-7.9141l-2.6328 0.37305-1.3379-1.5195c-2.3967-2.7228-4.0757-3.1041-8.1309-1.8516-3.2697 1.0099-4.7862 0.9059-7.9785-0.54688-3.542-1.612-6.3673-1.7199-9.3223-0.35742-1.6944 0.7813-2.2253 0.86526-4.5176 0.72852-3.8815-0.23168-7.1835-0.76805-10.236-1.6641-1.5042-0.44149-3.1249-0.80474-3.6015-0.80859-1.8771-0.01512-6.3279 1.4147-9.6016 3.0859-2.9966 1.5298-3.5558 1.9529-4.3145 3.2637-3.0475 5.2655-6.5486 6.9291-11.703 5.5566-0.9493-0.25285-3.8101-1.3-6.3574-2.3262-5.7573-2.3194-6.9107-2.5306-8.666-1.5898-1.775 0.95134-3.4892 0.88395-7.2813-0.2832-4.5593-1.4035-5.1557-1.4682-7.2558-0.78516-1.686 0.54837-1.9706 0.79558-3.3887 2.9414-1.5048 2.277-1.589 2.3438-3.0117 2.3984-0.805 0.03024-3.0442 0.16176-4.9766 0.29102-7.3085 0.48813-15.362-2.2182-26.018-8.7422l-3.5527-2.1738-1.6934 0.36524c-2.7905 0.60015-7.7178 0.43944-10.73-0.34961-3.0704-0.80413-8.0859-3.0846-11.102-5.0469-1.6073-1.0459-3.5465-1.7875-8.7012-3.3281-7.9844-2.3864-10.966-2.9883-14.795-2.9883-3.3091 0-5.9546 0.59106-9.0234 2.0195-1.1709 0.54501-2.6889 0.99219-3.375 0.99219-1.7793 0-4.7802-1.6275-7.7129-4.1836-4.592-4.0024-7.4181-6.2041-8.5938-6.6953-0.6399-0.26721-2.091-0.47083-3.2265-0.45117-1.1356 0.0189-6.4325-0.12088-11.77-0.3125-12.204-0.43869-15.709-1.1121-20.932-4.0156-3.737-2.0777-6.4242-2.1089-13.867-0.16797-2.5901 0.6754-4.4435 0.90794-8.1992 1.0352-8.4488 0.28611-14.356 0.11923-21.246-0.60156-3.6807-0.38491-9.3318-0.78834-12.557-0.89844-5.2057-0.17764-5.9916-0.1341-7.0098 0.39258-0.7395 0.38238-2.4017 0.68618-4.6777 0.85547-4.148 0.30841-5.1723 0.52119-6.5879 1.3711l-1.0528 0.63086-0.6953-1.1777c-0.3826-0.64845-1.0608-1.3452-1.5078-1.5488-0.447-0.20372-1.0668-0.9333-1.3769-1.6211-0.6733-1.4929-2.0256-3.0234-2.6719-3.0234-0.6014 0-1.4931 0.899-1.8672 1.8828-0.1758 0.4619-0.6713 0.85587-1.2266 0.97266-0.5126 0.10772-2.6628 0.75119-4.7793 1.4297-4.421 1.4174-7.4312 1.6309-9.3144 0.66211l-1.1172-0.57422-1.7266 1.2891c-2.4739 1.8468-5.1108 3.237-7.3652 3.8828-2.2306 0.63897-6.9026 0.72979-9.332 0.18164-2.0294-0.45796-7.3113-2.3074-10.963-3.8379-3.695-1.5485-5.6921-1.6129-7.5762-0.24805-0.7249 0.52513-1.5569 1.3148-1.8496 1.7559-0.3145 0.47376-1.4047 1.1313-2.6641 1.6055-5.0997 1.9202-10.354 4.8858-15.516 8.7578-4.972 3.73-7.8789 4.3536-20.914 4.4805-9.2202 0.08958-11.615 0.35842-15.892 1.791-1.8627 0.62396-3.0966 0.68415-17.066 0.81836-16.485 0.15836-18.515 0.34921-24.365 2.2852-2.1337 0.70609-3.181 1.2496-3.7812 1.9629-1.2637 1.5018-4.7342 4.0101-7.0762 5.1152-1.1531 0.5441-3.7119 1.4915-5.6875 2.1035s-4.8731 1.5823-6.4375 2.1582c-2.7786 1.0229-2.9322 1.0419-6.6914 0.8125-9.7274-0.59358-14.533-0.36494-17.764 0.84375-1.2785 0.47838-2.9088 1.6056-5.2617 3.6348-3.7468 3.2313-5.9855 4.7034-9.1719 6.0371-1.8296 0.76581-2.5819 0.88246-5.8261 0.89648-2.4723 0.01134-3.8951 0.15726-4.2305 0.43555-0.2778 0.23055-1.613 0.72476-2.9668 1.0996-3.0796 0.85266-7.8663 3.0754-9.0332 4.1934-1.305 1.2503-3.182 1.3855-6.1738 0.44726-2.3844-0.74782-2.6312-0.76114-6.8848-0.38281-3.6968 0.32882-5.6426 0.30044-12.014-0.17578-7.3838-0.55181-7.7359-0.54931-12.238 0.08398-3.4588 0.48642-6.4625 0.64826-11.83 0.64062-7.7628-0.01134-11-0.41812-16.082-2.0234l-2.6289-0.83008-2.0801 1.6758c-5.3598 4.3189-10.992 6.1707-21.371 7.0254-2.8031 0.23093-4.7881 0.58274-6.0215 1.0664-1.5031 0.58942-2.67 0.73756-6.3594 0.81055-2.4845 0.04913-4.9674 0.02254-5.5195-0.0625-11.542-1.7451-12.87-1.8661-19.742-1.8047-5.069 0.04535-7.1808-0.39703-15.928-3.3398-4.2645-1.4347-8.1602-2.5201-10.207-2.8438-3.4382-0.54365-4.6276-0.75844-10.506-1.9004-3.1208-0.60627-5.1762-0.69986-18.402-0.83203l-14.891-0.14844-4.5176-1.1211c-2.4845-0.6167-5.7765-1.3066-7.3144-1.5312-3.3665-0.49164-8.4544-0.25533-10.129 0.46875-2.9145 1.2606-4.5357 3.5761-4.916 7.0234l-0.22656 2.0586-2.3438 0.44922c-1.5894 0.30425-5.5146 0.4614-12.213 0.49024-11.087 0.04762-10.639 0.10793-20.41-2.7207-3.2206-0.9323-8.511-2.3692-11.756-3.1934-5.7337-1.4563-5.9404-1.485-7.3594-0.99609-4.0649 1.4005-8.6026-0.04596-16.318-5.2031-6.3239-4.2267-7.2978-4.5604-13.252-4.5332-6.1121 0.02646-11.111 1.2878-18.572 4.6836-5.3301 2.4259-8.5778 3.2381-13.049 3.2617-3.0463 0.01512-4.4326-0.14036-6.6484-0.75586l-2.7988-0.77734-0.87109 1.1328c-4.1635 5.413-8.2082 5.6525-13.904 0.82031l-2.2383-1.8984-1.1777 0.72852c-1.9023 1.1757-4.0898 0.81649-7.7168-1.2676-4.8759-2.8017-7.0319-3.0563-9.2715-1.0898l-1.1133 0.97852-1.293-0.66016c-1.6684-0.85062-2.0405-0.83448-5.1113 0.22852-4.1264 1.4284-4.7066 1.5007-6.3242 0.78516-1.0525-0.46556-1.674-1.0567-2.3496-2.2344-1.2002-2.0923-3.997-4.8896-5.8242-5.8262-3.1025-1.5903-5.7219-0.65849-8.1641 2.9062-0.74075 1.0812-1.7465 2.1919-2.2363 2.4668-0.81755 0.45891-0.96643 0.44302-1.8164-0.19141-0.50925-0.38022-1.608-1.9517-2.4414-3.4922-1.4109-2.6078-1.6074-2.8218-2.8535-3.0977-0.73614-0.1629-3.8987-0.20852-7.0274-0.10156-3.4674 0.1183-7.0157 0.04248-9.0859-0.19336-4.4094-0.50215-6.2921-0.05562-12.145 2.8828-3.7369 1.8762-4.4754 2.14-5.2187 1.8574-1.4835-0.56402-3.866-0.3484-7.5137 0.68164-4.3652 1.2325-6.3871 1.2782-8.1894 0.1875-1.27-0.76872-1.3744-0.77989-2.3418-0.26172-0.62165 0.33298-1.7916 0.53967-3.0273 0.5332-2.5465-0.01512-4.3308-0.81674-9.8457-4.4336-2.2899-1.5018-4.9941-2.9924-6.0098-3.3125-1.0156-0.32013-2.2937-0.99138-2.8398-1.4902-1.3143-1.2005-2.3983-1.3958-5.8516-1.0566-3.7636 0.36964-4.2454 0.31014-6.791-0.83203-2.452-1.1001-3.6844-2.4134-6.9512-7.4102-1.143-1.7483-2.3509-3.4796-2.6856-3.8477-0.33449-0.36813-1.0702-1.762-1.6328-3.0957-2.3619-5.5987-5.4087-9.591-8.8613-11.613-0.88947-0.52097-2.8208-1.3652-4.293-1.875l-2.6777-0.92578-1.1582 0.78711c-0.63794 0.43294-1.7059 0.96599-2.3711 1.1855-1.7169 0.56663-5.7243 0.19474-9.1289-0.84766-3.2039-0.98113-3.3057-0.97585-9.6133 0.50977-8.2357 1.9397-12.184 1.9388-15.883-0.0039-1.0687-0.56103-2.809-1.4719-3.8672-2.0234-2.4775-1.2914-5.93-2.1544-11.975-2.9922-9.1821-1.2726-9.1237-1.2552-9.8613-2.7012-0.88486-1.7346-2.1629-2.6719-3.6445-2.6719-0.74532 0-1.6924-0.3249-2.4473-0.83789-0.67707-0.46008-1.3337-0.83594-1.459-0.83594-0.12548 0-1.0931 0.90358-2.1504 2.0078-1.1785 1.2308-2.1992 2.0078-2.6387 2.0078-0.95354 0-1.8585-1.5412-2.541-4.3262-0.48167-1.9655-0.72468-2.3672-2.1152-3.498-3.0712-2.4976-7.0367-3.8212-10.205-3.4043z" stroke-width=".33461"/>
</g>
</svg>
