<?xml version="1.0" encoding="UTF-8"?>
<svg width="265.55mm" height="197.57mm" version="1.1" viewBox="0 0 265.55 197.57" xmlns="http://www.w3.org/2000/svg">
<g transform="translate(195.64 16.02)">
<path d="m-146.66 181.45c-2.9969-0.0137-5.9414-0.21265-8.8413-0.78023-2.1468-0.84535-3.7995-2.7569-6.5066-1.7051-2.3511 1.1246-4.905 1.3908-7.4815 1.3131-2.7301-0.28264-5.5122-0.86274-8.2478-0.0848-3.081 0.43776-6.3558 0.76023-9.3204-0.43185-2.6603-0.61142-6.072 1.2987-8.1484-1.152-0.49388-1.7045-0.0507-4.2851 0.7437-6.0489 0.8131-2.8824-2.4843-6.4661 0.28692-9.0465 2.7261-2.4191-1.0128-5.5587 8e-3 -8.3657 0.13929-2.5167-1.2742-4.9181-0.65228-7.4648-1.0356-2.9494-0.95024-6.1806-0.51887-9.2389 0.94545-2.927 2.5552-6.1188 1.0746-9.1742-1.078-2.6052-1.0298-5.5442 0.24485-8.0704 1.1089-2.3952 2.7494-5.5334 0.47084-7.6549-0.76792-2.6938-1.8846-5.8697-0.32168-8.4813-0.10614-1.6056 1.7296-2.8841 1.0336-4.4128-0.49233-2.3746-2.4022-5.0089-0.77271-7.3093-1.0183-3.1154 1.4914-5.8044 1.0417-8.8933 0.29006-2.8712-0.50811-5.5951-0.95949-8.3686-0.0813-2.6316 0.5222-5.1849 1.3324-7.6555-0.12819-2.8046-1.6436-5.3022-2.1359-8.0213 0.40573-2.7791 2.597-5.612 2.0703-8.6523-1.7176-2.2337-2.433-4.9992-2.159-7.7999 0.38644-2.8606 1.3909-5.5826 2.1704-8.3836 0.45858-2.7718-1.1154-5.3595-0.78311-8.1796 0.0734-0.98607-0.41767-2.1311 0.40201-2.907 1.1611-2.5224-0.92094-5.2248-0.50101-7.9721-0.1568-2.7558-1.3774-5.3504-0.62344-8.1449 0.0413-2.7539 0.0398-5.136 1.1471-7.7184-0.01-3.1311 0.1771-6.3193-0.33351-9.414-2.3414-3.4541 1.6948-5.4814 4.6901-5.4468 2.3318-0.95845 4.1539 1.8399 6.7597 0.68458 2.7179 0.72284 5.5324 1.4396 8.3478 1.6889 2.2927-0.46042 4.0105-2.4037 6.4719-2.2366 1.6128 0.07145 3.3591 1.828 5.0291 0.3187 2.6788-2.1441 5.8564 0.04272 8.6593 0.54678 2.3819 0.33828 4.7739 0.71064 7.1746 0.98526 1.6981-0.93048 3.4941-1.5474 5.2339-2.2636 2.786-1.5273 5.7067-0.22109 8.5073 0.34541 2.966 0.17249 6.0824-0.04006 8.7546 1.4899 2.8467-0.46706 5.6693-0.2429 8.4634 0.05391 2.4662-1.7738 5.8091-0.8394 8.4801-2.1728 2.5992-0.54234 5.4923-0.13122 8.0218 0.59102 2.2994 2.1876 5.5705 0.77768 8.3102 0.50676 3.3823-0.29405 6.6944-1.0366 10.093-1.1978 2.8607-0.93499 5.5007 0.60645 8.0577 1.5031 3.1702 0.22488 6.209 1.4146 9.503 1.0244 2.806 1.6612 5.4407-0.80161 8.16-1.4076 2.6928 0.058 5.1381 0.62737 7.6982-0.44327 1.1026-1.0596 2.4797-0.20976 3.7679-0.05042 2.5192 0.87876 5.2676 1.0755 7.9011 1.0079 1.874-1.0903 3.889-1.0235 5.9755-1.1158 2.9813-0.21723 5.6289 1.2609 8.3264 2.2376 3.0637 0.68938 5.5917-1.0031 8.164-2.0888 4.0649-0.4047 8.1074 1.3244 12.127 0.15079 2.4446-0.75312 4.6291 0.76878 7.0354 0.21289 1.4569-0.22295 2.5379 1.3536 4.0243 1.3878 2.8402 1.3153 5.805 0.27856 7.7641-2.0356 2.5725-2.2279 6.1674-1.5462 9.1973-0.89754 2.4746 1.568 5.5122 3.0102 8.2703 1.1648 3.9734-1.1804 8.0357 0.09379 12.048 0.17748 3.2914-0.31168 6.5598-0.91331 9.8833-0.60639 2.736-0.394 4.8946 1.2076 7.0891 2.4561 3.2404-0.03198 3.6142 3.4083 4.2491 5.8466 0.96076 2.8481-0.2816 5.6241-0.49769 8.4333 0.81397 2.733 1.2902 5.5597 1.0468 8.3749-0.0642 2.7372-1.0514 5.3399-1.0024 8.0635 0.26538 2.9506-0.49025 5.6748-0.74214 8.5697-0.23635 2.8261-1.0952 5.4557 0.24414 8.2368 0.56678 2.7316 0.61726 5.584-0.33684 8.2322-1.7956 2.9483 0.85309 5.8622 0.54393 8.9205 0.23808 3.3567-0.38078 6.68-1.7573 9.7469-0.86749 2.8981-0.48289 6.0656 1.0952 8.661 0.77468 1.1697 1.6872 2.1273 1.3988 3.6253-0.2593 2.6614-1.5829 5.1833-1.3482 8.0571-0.5234 2.8725 0.66828 5.9512-0.52611 8.6806-1.744 2.4976-1.6672 5.1029-0.45457 7.7358-1.5936 3.2152 4.2713 4.7354 1.9235 7.9207-1.0245 2.843 0.43963 5.5667 0.16936 8.364-0.69729 2.5447-0.99526 5.266-2.4192 7.5139-1.0317 2.982 0.43636 5.831 1.2829 8.6286 0.87101 2.5676-0.62101 5.5266-0.0942 8.253 0.78057 2.6214 1.5072 5.4152 0.3615 8.0681-1.6742 2.8983-0.11479 5.4344 0.51501 8.2374-0.2274 2.911 0.36807 5.9691-0.20923 8.7332-2.5235 2.0254 1.9576 3.4009 1.0949 6.0292 0.0531 2.7077-0.66991 5.2908-1.2281 7.9045-0.38177 1.8725-3.3411 0.88719-4.7457 1.2847-2.5695 0.56229-5.2139 1.584-7.8941 1.5392-2.6355-0.73474-5.4287-0.3778-8.123-0.54027-3.0233-0.27591-6.0333-1.0905-8.9979 0.0365-1.9407 1.3244-3.4271-0.74867-4.8826-0.86258-2.8863 1.9003-5.7051-0.23504-8.5304-0.49843-2.4943 0.57519-5.0726 1.3798-7.5231-0.11862-1.6645-0.26521-3.5117 1.0235-5.3049 0.20969-3.0497-1.0017-5.5584 1.9906-8.6939 0.96983-2.788-0.77635-5.4159 0.4072-8.2276 0.0622-2.7242-0.56692-5.3675-0.0864-8.097-0.15242-3.2512 0.0447-6.4008 1.1226-9.6787 0.96816-2.7122-0.5527-5.5195-1.0002-8.1588-1.7912-2.3734-2.011-5.2016-0.32533-7.6133 0.5484-3.0154-0.29038-5.9062 0.53157-8.9586 0.75393-2.744 0.26225-5.5732 0.0875-8.3547 0.12884-3.4623 0.31059-6.4401-2.2392-9.7896-2.0932-1.9776 2.4717-5.1193 1.0049-7.6381 1.9611-2.5416 0.0612-5.6748-3.8725-7.7005-0.30352-2.1614 1.4665-4.981 0.0565-7.3492-0.23804-2.9894-1.1082-6.131 0.4812-9.1944-0.20605-2.5977-0.9447-5.7236-0.472-7.9987-2.092-2.0788-1.0703-4.2916 0.77191-6.2119 1.6143-4.5764 0.14208-9.2083-0.20686-13.761 0.3042-3.2184 1.152-7.0365 1.4182-10.12-0.27049-2.8397-0.24193-5.7786 0.33249-8.3108 1.6096-1.0452 0.16082-2.112 0.0329-3.1612-0.0114z" stroke-width=".5779"/>
</g>
</svg>
